<?xml version="1.0" encoding="UTF-8"?>
<svg width="125px" height="125px" viewBox="0 0 125 125" version="1.1" xmlns="http://www.w3.org/2000/svg" xmlns:xlink="http://www.w3.org/1999/xlink">
    <!-- Generator: Sketch 46.2 (44496) - http://www.bohemiancoding.com/sketch -->
    <title>14_up-01</title>
    <desc>Created with Sketch.</desc>
    <defs></defs>
    <g id="главная" stroke="none" stroke-width="1" fill="none" fill-rule="evenodd">
        <g id="Desktop" transform="translate(-863.000000, -1542.000000)" fill-rule="nonzero">
            <g id="14_up-01" transform="translate(863.000000, 1542.000000)">
                <g id="Group" transform="translate(84.756098, 0.000000)">
                    <rect id="Rectangle-path" fill="#E0E0E0" x="7.87793373" y="0.172697368" width="8.95363553" height="3.00986842"></rect>
                    <path d="M5.69489185,29.7286184 C4.99884952,30.9375 4.58755177,32.2697368 4.58755177,33.6759868 C4.58755177,38.9555921 10.0926139,43.2483553 16.8632075,43.2483553 L16.8632075,46.6776316 C7.65646572,46.6776316 0.189829728,40.8552632 0.189829728,33.6759868 C0.189829728,27.9276316 4.96721123,23.0674342 11.5796134,21.3404605 L11.5796134,3.18256579 L16.8632075,3.18256579 L16.8632075,29.7286184 L5.69489185,29.7286184 Z" id="Shape" fill="#BDBDBD"></path>
                    <path d="M16.8315693,29.7286184 L16.8315693,43.2483553 C10.0609756,43.2483553 4.55591348,38.9555921 4.55591348,33.6759868 C4.55591348,32.2697368 4.96721123,30.9128289 5.66325357,29.7286184 L16.8315693,29.7286184 Z" id="Shape" fill="#38A4DD"></path>
                    <rect id="Rectangle-path" fill="#BDBDBD" x="16.8315693" y="0.172697368" width="8.95363553" height="3.00986842"></rect>
                    <path d="M33.5365854,33.7006579 C33.5365854,40.8799342 26.0699494,46.7023026 16.8632075,46.7023026 L16.8632075,46.7023026 L16.8632075,43.2730263 L16.8632075,43.2730263 C23.6338012,43.2730263 29.1388633,38.9802632 29.1388633,33.7006579 C29.1388633,32.2944079 28.7275656,30.9375 28.0315232,29.7532895 L16.8632075,29.7532895 L16.8632075,3.18256579 L22.1784399,3.18256579 L22.1784399,21.3404605 C28.7592039,23.0674342 33.5365854,27.9523026 33.5365854,33.7006579 Z" id="Shape" fill="#9D9D9D"></path>
                    <path d="M29.1388633,33.7006579 C29.1388633,38.9802632 23.6338012,43.2730263 16.8632075,43.2730263 L16.8632075,43.2730263 L16.8632075,29.7532895 L28.0315232,29.7532895 C28.7275656,30.9375 29.1388633,32.2697368 29.1388633,33.7006579 Z" id="Shape" fill="#2C98D4"></path>
                </g>
                <g id="Group" transform="translate(77.439024, 79.391892)">
                    <rect id="Rectangle-path" fill="#BDBDBD" x="0.125989339" y="15.3341855" width="3.37021483" height="2.44065011"></rect>
                    <rect id="Rectangle-path" fill="#BDBDBD" x="0.125989339" y="24.1846238" width="3.37021483" height="2.44065011"></rect>
                    <rect id="Rectangle-path" fill="#BDBDBD" x="0.125989339" y="37.4479547" width="5.98449362" height="2.44065011"></rect>
                    <rect id="Rectangle-path" fill="#BDBDBD" x="0.125989339" y="33.0350621" width="3.37021483" height="2.44065011"></rect>
                    <polygon id="Shape" fill="#488FCC" points="10.2681312 22.1137692 10.2681312 37.5465668 23.6859958 37.5465668 23.6859958 45.534149 0.125989339 45.534149 0.125989339 39.8886048 6.07898562 39.8886048 6.07898562 37.4479547 0.125989339 37.4479547 0.125989339 35.4757122 3.46470683 35.4757122 3.46470683 33.0350621 0.125989339 33.0350621 0.125989339 31.0381665 6.07898562 31.0381665 6.07898562 28.5975164 0.125989339 28.5975164 0.125989339 26.6252739 3.46470683 26.6252739 3.46470683 24.1846238 0.125989339 24.1846238 0.125989339 22.1877283 6.07898562 22.1877283 6.07898562 19.7470782 0.125989339 19.7470782 0.125989339 17.7748356 3.46470683 17.7748356 3.46470683 15.3341855 0.125989339 15.3341855 0.125989339 13.33729 6.07898562 13.33729 6.07898562 10.8966399 0.125989339 10.8966399 0.125989339 0.0986121256 2.36230011 2.26807889 23.6859958 22.8040541 23.6859958 35.0566107"></polygon>
                    <polygon id="Shape" fill="#3D82C4" points="47.3089969 45.534149 23.6859958 45.534149 23.6859958 37.5465668 26.2687773 37.5465668 23.6859958 35.0566107 23.6859958 22.8040541"></polygon>
                    <rect id="Rectangle-path" fill="#BDBDBD" x="0.125989339" y="10.8966399" width="5.98449362" height="2.44065011"></rect>
                    <rect id="Rectangle-path" fill="#BDBDBD" x="0.125989339" y="19.7470782" width="5.98449362" height="2.44065011"></rect>
                    <rect id="Rectangle-path" fill="#BDBDBD" x="0.125989339" y="28.5975164" width="5.98449362" height="2.44065011"></rect>
                </g>
                <g id="Group" transform="translate(10.975610, 2.111486)">
                    <path d="M57.6763349,0.0739790886 L57.6763349,27.2982837 L28.8694792,27.2982837 L28.8694792,26.0899586 L28.8694792,26.0899586 C29.840145,26.0899586 30.62294,25.4734662 30.62294,24.7090156 C30.62294,23.944565 29.840145,23.3280726 28.8694792,23.3280726 L28.8694792,23.3280726 L28.8694792,21.9471296 L53.2926829,21.9471296 L53.2926829,2.63858749 L28.8694792,2.63858749 L28.8694792,0.0493193924 L57.6763349,0.0493193924 L57.6763349,0.0739790886 Z" id="Shape" fill="#3D82C4"></path>
                    <rect id="Rectangle-path" fill="#84D2F6" x="28.8694792" y="2.63858749" width="24.4232037" height="19.3085421"></rect>
                    <path d="M30.62294,24.7090156 C30.62294,25.4734662 29.840145,26.0899586 28.8694792,26.0899586 L28.8694792,26.0899586 L28.8694792,23.3280726 L28.8694792,23.3280726 C29.840145,23.3280726 30.62294,23.944565 30.62294,24.7090156 Z" id="Shape" fill="#E53A35"></path>
                    <rect id="Rectangle-path" fill="#2B66B1" x="28.8694792" y="27.2982837" width="1.69083718" height="3.05780233"></rect>
                    <rect id="Rectangle-path" fill="#E53A35" x="28.8694792" y="30.356086" width="7.17040211" height="3.40303807"></rect>
                    <rect id="Rectangle-path" fill="#B5E4FA" x="4.44627554" y="2.63858749" width="24.4232037" height="19.3085421"></rect>
                    <path d="M4.44627554,2.63858749 L4.44627554,21.9471296 L28.8694792,21.9471296 L28.8694792,23.3280726 C27.8988134,23.3280726 27.1160185,23.944565 27.1160185,24.7090156 C27.1160185,25.4734662 27.8988134,26.0652989 28.8694792,26.0899586 L28.8694792,27.2982837 L0.0939353988,27.2982837 L0.0939353988,0.0739790886 L28.8694792,0.0739790886 L28.8694792,2.66324719 L4.44627554,2.66324719 L4.44627554,2.63858749 Z" id="Shape" fill="#488FCC"></path>
                    <path d="M28.8694792,23.3280726 L28.8694792,26.0899586 C27.8988134,26.0899586 27.1160185,25.4734662 27.1160185,24.7090156 C27.1160185,23.944565 27.8988134,23.3527323 28.8694792,23.3280726 Z" id="Shape" fill="#EF4438"></path>
                    <rect id="Rectangle-path" fill="#3474BA" x="27.2099539" y="27.2982837" width="1.65952538" height="3.05780233"></rect>
                    <rect id="Rectangle-path" fill="#EF4438" x="21.7303889" y="30.356086" width="7.17040211" height="3.40303807"></rect>
                </g>
                <g id="Group" transform="translate(0.000000, 85.726351)">
                    <path d="M9.75653941,30.512091 L8.94088017,31.1477596 C6.90173206,32.736931 3.57635207,32.736931 1.53720396,31.1477596 L1.53720396,31.1477596 L6.05470131,27.6271337 L9.75653941,30.512091 Z" id="Shape" fill="#F78C1E"></path>
                    <g transform="translate(1.586250, 0.000000)">
                        <rect id="Rectangle-path" fill="#F78C1E" transform="translate(17.903175, 20.019910) rotate(-45.000000) translate(-17.903175, -20.019910) " x="5.11940768" y="17.9784551" width="25.5675349" height="4.08290892"></rect>
                        <rect id="Rectangle-path" fill="#ED6D23" transform="translate(7.590405, 28.053959) rotate(-45.000000) translate(-7.590405, -28.053959) " x="5.77087466" y="26.012505" width="3.63906019" height="4.08290892"></rect>
                        <path d="M38.6947685,7.89695946 L37.9104807,7.84806188 L36.9693355,7.7747155 C36.4046483,7.72581792 35.9027041,7.5302276 35.4948745,7.23684211 C34.9615589,6.82121266 34.6792153,6.23444168 34.8360728,5.59877312 C34.9301873,5.1097973 34.8047013,4.62082148 34.4596147,4.25408962 L39.5731707,0.2689367 C39.9810004,0.293385491 40.3574585,0.293385491 40.6711736,0.317834282 C41.2672322,0.342283073 41.6123188,0.880156472 41.2672322,1.27133713 C40.2633439,2.4204303 38.72614,4.62082148 38.72614,7.23684211 C38.7575115,7.45688122 38.7575115,7.67692034 38.6947685,7.89695946 Z" id="Shape" fill="#3D82C4"></path>
                        <path d="M36.3419053,11.2708926 C36.3419053,11.2953414 36.3105338,11.2953414 36.3105338,11.2953414 C34.8988158,12.2977418 33.4243549,12.7867176 33.4243549,12.7867176 L33.4243549,12.7867176 C31.0087487,13.6179765 28.1853128,13.4223862 25.9893072,12.2243954 L25.1109049,11.5398293 L34.4909862,4.22964083 C34.8360728,4.62082148 34.9929304,5.08534851 34.8674443,5.57432432 C34.7419583,6.20999289 34.9929304,6.79676387 35.526246,7.21239331 C35.9027041,7.50577881 36.4046483,7.70136913 37.000707,7.75026671 L37.9418522,7.82361309 L38.72614,7.87251067 C38.4751679,9.36388691 37.4399081,10.4885313 36.3419053,11.2708926 Z" id="Shape" fill="#9D9D9D"></path>
                        <rect id="Rectangle-path" fill="#F47C20" transform="translate(3.909601, 25.188564) rotate(-45.000000) translate(-3.909601, -25.188564) " x="2.09007116" y="23.1471092" width="3.63906019" height="4.08290892"></rect>
                        <rect id="Rectangle-path" fill="#F8981D" transform="translate(14.244554, 17.137250) rotate(-45.000000) translate(-14.244554, -17.137250) " x="1.46078697" y="15.0957959" width="25.5675349" height="4.08290892"></rect>
                        <path d="M39.6045422,0.244487909 L34.4909862,4.22964083 C34.1145281,3.81401138 33.5498409,3.52062589 32.8596677,3.42283073 L32.5459526,3.39838193 C31.5420643,3.27613798 30.7577766,2.689367 30.5695475,1.93145448 L30.41269,1.41802987 L30.287204,0.953502845 C33.612584,0.195590327 37.251679,0.146692745 39.6045422,0.244487909 Z" id="Shape" fill="#488FCC"></path>
                        <path d="M34.4909862,4.22964083 L25.1109049,11.5398293 L24.0756451,10.7330192 C22.036497,8.45928165 22.2874691,5.32983642 24.7971898,3.27613798 C24.7971898,3.25168919 24.8285613,3.25168919 24.8285613,3.2272404 C24.9854189,3.10499644 25.1422764,2.98275249 25.3305055,2.88495733 L25.3932485,2.83605974 C25.5814776,2.71381579 25.7697066,2.61602063 25.9579357,2.49377667 C26.0834217,2.4204303 26.2089077,2.37153272 26.3343938,2.29818634 C26.4598798,2.22483997 26.5853659,2.17594239 26.7422234,2.12704481 C26.7735949,2.10259602 26.8049664,2.10259602 26.8363379,2.07814723 C27.9029692,1.58917141 29.0637151,1.22243954 30.287204,0.953502845 L30.41269,1.41802987 L30.5695475,1.93145448 C30.7577766,2.689367 31.5734358,3.27613798 32.5459526,3.39838193 L32.8596677,3.42283073 C33.5498409,3.52062589 34.1145281,3.81401138 34.4909862,4.22964083 Z" id="Shape" fill="#BDBDBD"></path>
                    </g>
                    <path d="M6.05470131,27.6271337 L1.53720396,31.1477596 C-0.50194415,29.5585882 -0.50194415,26.9670164 1.53720396,25.377845 L2.3528632,24.7421764 L6.05470131,27.6271337 Z" id="Shape" fill="#F8981D"></path>
                </g>
            </g>
        </g>
    </g>
</svg>