<?xml version="1.0" encoding="UTF-8"?>
<svg width="125px" height="125px" viewBox="0 0 125 125" version="1.1" xmlns="http://www.w3.org/2000/svg" xmlns:xlink="http://www.w3.org/1999/xlink">
    <!-- Generator: Sketch 46.2 (44496) - http://www.bohemiancoding.com/sketch -->
    <title>14_up-01</title>
    <desc>Created with Sketch.</desc>
    <defs></defs>
    <g id="главная" stroke="none" stroke-width="1" fill="none" fill-rule="evenodd">
        <g id="Desktop" transform="translate(-42.000000, -1541.000000)" fill-rule="nonzero">
            <g id="14_up-01" transform="translate(42.000000, 1541.000000)">
                <g id="Group" transform="translate(80.708661, 0.000000)">
                    <polygon id="Shape" fill="#757576" points="11.2791608 0.714492754 11.2791608 40.0115942 5.61207023 40.0115942 5.61207023 9.09130435 8.3905952 9.09130435 8.3905952 5.64202899 5.61207023 5.64202899 5.61207023 0.714492754"></polygon>
                    <rect id="Rectangle-path" fill="#434343" x="5.61207023" y="40.0115942" width="5.66709053" height="6.72608696"></rect>
                    <rect id="Rectangle-path" fill="#EEEEEE" x="5.61207023" y="5.64202899" width="2.75101482" height="3.44927536"></rect>
                    <polygon id="Shape" fill="#9D9D9D" points="2.88856556 5.64202899 2.88856556 9.09130435 5.61207023 9.09130435 5.61207023 40.0115942 0 40.0115942 0 0.714492754 5.61207023 0.714492754 5.61207023 5.64202899"></polygon>
                    <rect id="Rectangle-path" fill="#F5F5F5" x="2.88856556" y="5.64202899" width="2.72350467" height="3.44927536"></rect>
                    <rect id="Rectangle-path" fill="#616262" x="0" y="40.0115942" width="5.63958038" height="6.72608696"></rect>
                    <polygon id="Shape" fill="#F78C1E" points="22.5583215 0.714492754 22.5583215 40.0115942 16.891231 40.0115942 16.891231 9.09130435 19.6422458 9.09130435 19.6422458 5.64202899 16.891231 5.64202899 16.891231 0.714492754"></polygon>
                    <rect id="Rectangle-path" fill="#ED6D23" x="16.891231" y="40.0115942" width="5.66709053" height="6.72608696"></rect>
                    <rect id="Rectangle-path" fill="#EEEEEE" x="16.891231" y="5.64202899" width="2.75101482" height="3.44927536"></rect>
                    <polygon id="Shape" fill="#F8981D" points="14.1677263 5.64202899 14.1677263 9.09130435 16.891231 9.09130435 16.891231 40.0115942 11.2516506 40.0115942 11.2516506 0.714492754 16.891231 0.714492754 16.891231 5.64202899"></polygon>
                    <rect id="Rectangle-path" fill="#F5F5F5" x="14.1677263" y="5.64202899" width="2.72350467" height="3.44927536"></rect>
                    <rect id="Rectangle-path" fill="#F47C20" x="11.2516506" y="40.0115942" width="5.63958038" height="6.72608696"></rect>
                    <polygon id="Shape" fill="#3D82C4" points="33.6724214 0.172463768 42.5306891 38.6565217 36.9736392 39.6913043 30.0135717 9.4115942 32.7095662 8.8942029 31.939282 5.51884058 29.2157774 6.0115942 28.1153714 1.20724638"></polygon>
                    <rect id="Rectangle-path" fill="#2B66B1" transform="translate(40.527334, 42.462046) rotate(-101.653770) translate(-40.527334, -42.462046) " x="36.7721456" y="39.9243285" width="7.51037695" height="5.07543429"></rect>
                    <rect id="Rectangle-path" fill="#EEEEEE" transform="translate(30.978055, 7.473151) rotate(-101.653770) translate(-30.978055, -7.473151) " x="29.0523178" y="6.2412492" width="3.85147536" height="2.46380305"></rect>
                    <polygon id="Shape" fill="#488FCC" points="26.547293 6.50434783 27.3175772 9.90434783 30.0135717 9.4115942 36.9736392 39.6913043 31.4716095 40.7014493 22.6133418 2.2173913 28.1153714 1.20724638 29.2157774 6.0115942"></polygon>
                    <rect id="Rectangle-path" fill="#F5F5F5" transform="translate(28.265756, 7.954591) rotate(-101.653770) translate(-28.265756, -7.954591) " x="26.340018" y="6.73500821" width="3.85147536" height="2.43916502"></rect>
                    <rect id="Rectangle-path" fill="#3474BA" transform="translate(34.997990, 43.482869) rotate(-101.653770) translate(-34.997990, -43.482869) " x="31.2428011" y="40.9574704" width="7.51037695" height="5.05079626"></rect>
                </g>
                <g id="Group" transform="translate(80.708661, 85.000000)">
                    <g transform="translate(4.377026, 2.726160)" id="Shape" fill="#E53A35">
                        <path d="M13.3225741,29.0707802 L33.7031033,10.6072412 C36.1104678,8.42631311 36.1651806,4.93187149 33.8672418,2.67659357 L36.5755269,0.223049465 C40.3507121,3.81662417 40.2959993,9.51677715 36.4113884,13.036002 L16.0308592,31.4995411 L13.3225741,29.0707802 Z"></path>
                        <path d="M30.3382642,12.1438042 L8.67198356,31.7721571 C6.3740447,33.8539521 3.00920565,34.3248343 0.21885132,33.2095869 L3.39219546,30.3347272 C4.32231357,30.3099439 5.2797881,29.9877613 5.99105489,29.318613 L27.6573356,9.69026007 C28.0676818,9.31851096 28.0950382,8.69892912 27.6573356,8.32718001 L30.3656207,5.8736359 C32.2532133,7.60846507 32.2532133,10.408975 30.3382642,12.1438042 Z"></path>
                    </g>
                    <path d="M9.60210167,25.0806731 L27.7941176,8.59979602 C29.7090667,6.86496685 32.8003416,6.86496685 34.7152906,8.59979602 L34.7152906,8.59979602 L32.0070056,11.0533401 L32.0070056,11.0533401 C31.5693029,10.6568078 30.912749,10.681591 30.4750463,11.0533401 L12.3103868,27.5342172 L9.60210167,25.0806731 Z" id="Shape" fill="#EF4438"></path>
                    <path d="M29.1619384,5.22927078 L4.97886753,27.1376849 C3.50162112,28.4759816 3.50162112,30.681693 4.97886753,32.0199898 C5.74484715,32.7139215 6.75703451,33.0608873 7.76922186,33.036104 L4.59587772,35.9109638 C3.74782886,35.5887812 2.95449282,35.0931158 2.27058245,34.4735339 C-0.71126679,31.7721571 -0.71126679,27.3855176 2.27058245,24.708924 L26.4536533,2.80050994 C30.3929771,-0.768281489 36.8217346,-0.768281489 40.7610584,2.80050994 L40.9525533,2.97399286 L38.2442682,5.42753697 C38.1895553,5.37797042 38.1348425,5.3036206 38.0801297,5.25405405 C35.6180523,2.99877613 31.6240157,2.99877613 29.1619384,5.22927078 Z" id="Shape" fill="#EF4438"></path>
                </g>
                <g id="Group" transform="translate(0.000000, 90.000000)">
                    <path d="M37.387809,9.4965035 L36.8371786,9.98601399 L32.5147294,6.14335664 L37.387809,1.81118881 C38.5716646,2.86363636 39.1773581,4.25874126 39.1773581,5.65384615 C39.1773581,7.04895105 38.5991961,8.44405594 37.387809,9.4965035 Z" id="Shape" fill="#8A8791"></path>
                    <rect id="Rectangle-path" fill="#9D9D9D" transform="translate(23.753247, 17.798796) rotate(-45.000000) translate(-23.753247, -17.798796) " x="11.1852274" y="15.0820388" width="25.13604" height="5.43351433"></rect>
                    <rect id="Rectangle-path" fill="#9D9D9D" transform="translate(11.364560, 28.822966) rotate(-45.000000) translate(-11.364560, -28.822966) " x="9.25841869" y="26.1062091" width="4.21228271" height="5.43351433"></rect>
                    <rect id="Rectangle-path" fill="#434343" transform="translate(33.658071, 8.985331) rotate(-45.000000) translate(-33.658071, -8.985331) " x="32.2126797" y="6.26857378" width="2.89078225" height="5.43351433"></rect>
                    <path d="M38.48907,13.6818182 L29.761577,21.4405594 L27.7242443,19.6293706 L35.543197,12.6783217 C35.59826,12.6293706 35.59826,12.5314685 35.543197,12.4825175 L34.7723143,11.7972028 L36.809647,9.98601399 L38.4615385,11.4545455 C39.1773581,12.0909091 39.1773581,13.0699301 38.48907,13.6818182 Z" id="Shape" fill="#E53A35"></path>
                    <rect id="Rectangle-path" fill="#434343" transform="translate(13.867891, 26.594979) rotate(-45.000000) translate(-13.867891, -26.594979) " x="12.4225002" y="23.8782217" width="2.89078225" height="5.43351433"></rect>
                    <polygon id="Shape" fill="#E53A35" points="11.2328616 31.3531469 4.98320577 33.2377622 3.4965035 33.6538462 2.56043169 32.8216783 7.70882661 28.2202797"></polygon>
                    <polygon id="Shape" fill="#EF4438" points="7.70882661 28.2202797 2.56043169 32.8216783 1.59682837 31.965035 2.06486427 30.6188811 4.18479159 25.0874126"></polygon>
                    <path d="M3.4965035,33.6538462 L2.14745884,34.8531469 C1.9822697,35 1.73448599,34.9755245 1.59682837,34.8531469 L0.936071802,34.2657343 L2.56043169,32.8216783 L3.4965035,33.6538462 Z" id="Shape" fill="#434343"></path>
                    <path d="M2.56043169,32.8216783 L0.936071802,34.2657343 L0.247783712,33.6538462 C0.0825945708,33.506993 0.0825945708,33.2867133 0.247783712,33.1643357 L1.59682837,31.965035 L2.56043169,32.8216783 Z" id="Shape" fill="#616262"></path>
                    <path d="M37.387809,1.81118881 L32.5147294,6.14335664 L28.1922802,2.3006993 L28.7429106,1.81118881 C31.1381532,-0.293706294 35.020098,-0.293706294 37.387809,1.81118881 L37.387809,1.81118881 Z" id="Shape" fill="#9D9D9D"></path>
                    <rect id="Rectangle-path" fill="#616262" transform="translate(29.353371, 5.129185) rotate(-45.000000) translate(-29.353371, -5.129185) " x="27.9079801" y="2.41242798" width="2.89078225" height="5.43351433"></rect>
                    <rect id="Rectangle-path" fill="#BDBDBD" transform="translate(19.448548, 13.942650) rotate(-45.000000) translate(-19.448548, -13.942650) " x="6.88052772" y="11.225893" width="25.13604" height="5.43351433"></rect>
                    <rect id="Rectangle-path" fill="#BDBDBD" transform="translate(7.040393, 24.984103) rotate(-45.000000) translate(-7.040393, -24.984103) " x="4.93425152" y="22.2673455" width="4.21228271" height="5.43351433"></rect>
                    <rect id="Rectangle-path" fill="#616262" transform="translate(9.543724, 22.756115) rotate(-45.000000) translate(-9.543724, -22.756115) " x="8.09833306" y="20.039358" width="2.89078225" height="5.43351433"></rect>
                </g>
                <g id="Group" transform="translate(0.000000, 1.000000)">
                    <path d="M44.0712574,34.5839572 L44.0712574,40.515508 C44.0712574,43.1294118 41.8704455,45.2909091 39.0644104,45.4919786 C39.3120018,45.1149733 39.4495525,44.6625668 39.4495525,44.159893 L39.4495525,29.6326203 C42.0905267,30.0096257 44.0712574,32.0705882 44.0712574,34.5839572 Z" id="Shape" fill="#3474BA"></path>
                    <path d="M39.4770626,16.6385027 L39.4770626,38.4545455 L22.1181591,38.4545455 L22.1181591,26.4909091 L23.5486868,26.4909091 L23.5486868,24.3545455 L26.9049249,24.3545455 L26.9049249,20.3582888 L32.5169952,20.3582888 C35.4880912,20.3582888 38.1015552,18.8502674 39.4770626,16.6385027 Z" id="Shape" fill="#2B66B1"></path>
                    <path d="M39.4770626,41.0684492 L39.4770626,44.1347594 C39.4770626,44.6122995 39.3395119,45.0647059 39.0919206,45.4668449 C38.5967379,46.271123 37.6613929,46.7989305 36.5609869,46.7989305 L22.1181591,46.7989305 L22.1181591,41.0684492 L39.4770626,41.0684492 Z" id="Shape" fill="#2B66B1"></path>
                    <rect id="Rectangle-path" fill="#2B66B1" x="22.1181591" y="20.5090909" width="1.92571037" height="1.20641711"></rect>
                    <path d="M40.4949381,4.80053476 L40.4949381,13.0695187 C40.4949381,14.3764706 40.1097961,15.5828877 39.4770626,16.6385027 C38.1015552,18.8502674 35.5156013,20.3582888 32.5169952,20.3582888 L26.9049249,20.3582888 L26.9049249,17.8951872 L22.1181591,17.8951872 L22.1181591,4.80053476 L40.4949381,4.80053476 L40.4949381,4.80053476 Z" id="Shape" fill="#3474BA"></path>
                    <polygon id="Shape" fill="#F78C1E" points="26.9049249 17.8951872 26.9049249 24.3545455 23.5486868 24.3545455 23.5486868 26.4909091 22.1181591 26.4909091 22.1181591 21.715508 24.0438695 21.715508 24.0438695 20.5090909 22.1181591 20.5090909 22.1181591 17.8951872"></polygon>
                    <path d="M27.6752091,3.79518717 L27.6752091,4.80053476 L24.7866435,4.80053476 L24.7866435,3.79518717 C24.7866435,3.2171123 24.2639507,2.73957219 23.6312173,2.73957219 L22.1181591,2.73957219 L22.1181591,0.100534759 L23.6312173,0.100534759 C25.8595393,0.100534759 27.6752091,1.7342246 27.6752091,3.79518717 Z" id="Shape" fill="#F78C1E"></path>
                    <path d="M5.14439771,45.4668449 C2.3383626,45.2406417 0.137550741,43.1042781 0.137550741,40.4903743 L0.137550741,34.5588235 C0.137550741,32.0454545 2.11828141,29.984492 4.75925564,29.6074866 L4.75925564,44.1347594 C4.75925564,44.6374332 4.89680638,45.0898396 5.14439771,45.4668449 Z" id="Shape" fill="#488FCC"></path>
                    <path d="M22.1181591,26.4909091 L22.1181591,38.4545455 L4.75925564,38.4545455 L4.75925564,16.6385027 C6.13476305,18.8502674 8.72071698,20.3582888 11.7193231,20.3582888 L17.3313934,20.3582888 L17.3313934,24.3545455 L20.6876314,24.3545455 L20.6876314,26.4909091 L22.1181591,26.4909091 Z" id="Shape" fill="#3474BA"></path>
                    <path d="M22.1181591,41.0684492 L22.1181591,46.7989305 L7.67533134,46.7989305 C6.60243557,46.7989305 5.63958038,46.271123 5.14439771,45.4668449 C4.89680638,45.0898396 4.75925564,44.6374332 4.75925564,44.1347594 L4.75925564,41.0684492 L22.1181591,41.0684492 Z" id="Shape" fill="#3474BA"></path>
                    <path d="M22.1181591,4.80053476 L22.1181591,17.8951872 L17.3313934,17.8951872 L17.3313934,20.3582888 L11.7193231,20.3582888 C8.72071698,20.3582888 6.13476305,18.8502674 4.75925564,16.6385027 C4.12652223,15.5828877 3.74138015,14.3764706 3.74138015,13.0695187 L3.74138015,4.80053476 L22.1181591,4.80053476 L22.1181591,4.80053476 Z" id="Shape" fill="#488FCC"></path>
                    <path d="M22.1181591,0.100534759 L22.1181591,2.73957219 L20.605101,2.73957219 C19.9723676,2.73957219 19.4496748,3.2171123 19.4496748,3.79518717 L19.4496748,4.80053476 L16.5611092,4.80053476 L16.5611092,3.79518717 C16.5611092,1.75935829 18.376779,0.100534759 20.605101,0.100534759 L22.1181591,0.100534759 L22.1181591,0.100534759 Z" id="Shape" fill="#BDBDBD"></path>
                    <polygon id="Shape" fill="#FAA629" points="20.1924488 20.5090909 20.1924488 21.715508 22.1181591 21.715508 22.1181591 26.4909091 20.6876314 26.4909091 20.6876314 24.3545455 17.3313934 24.3545455 17.3313934 17.8951872 22.1181591 17.8951872 22.1181591 20.5090909"></polygon>
                    <rect id="Rectangle-path" fill="#3474BA" x="20.1924488" y="20.5090909" width="1.92571037" height="1.20641711"></rect>
                    <rect id="Rectangle-path" fill="#FAA629" x="4.75925564" y="38.4545455" width="17.3589035" height="2.63903743"></rect>
                    <rect id="Rectangle-path" fill="#F78C1E" x="22.1181591" y="38.4545455" width="17.3589035" height="2.63903743"></rect>
                    <path d="M22.1181591,0.100534759 L22.1181591,2.73957219 L20.605101,2.73957219 C19.9723676,2.73957219 19.4496748,3.2171123 19.4496748,3.79518717 L19.4496748,4.80053476 L16.5611092,4.80053476 L16.5611092,3.79518717 C16.5611092,1.75935829 18.376779,0.100534759 20.605101,0.100534759 L22.1181591,0.100534759 L22.1181591,0.100534759 Z" id="Shape" fill="#FAA629"></path>
                </g>
            </g>
        </g>
    </g>
</svg>