<?xml version="1.0" encoding="UTF-8"?>
<svg width="48px" height="32px" viewBox="0 0 48 32" version="1.1" xmlns="http://www.w3.org/2000/svg" xmlns:xlink="http://www.w3.org/1999/xlink">
    <!-- Generator: Sketch 46.2 (44496) - http://www.bohemiancoding.com/sketch -->
    <title>if_Streamline-58_185078</title>
    <desc>Created with Sketch.</desc>
    <defs></defs>
    <g id="главная" stroke="none" stroke-width="1" fill="none" fill-rule="evenodd">
        <g id="Desktop" transform="translate(-809.000000, -810.000000)" fill-rule="nonzero" fill="#000051">
            <g id="if_Streamline-58_185078" transform="translate(488.000000, 761.000000)">
                <path d="M365,81 L325,81 C322.794,81 321,79.206 321,77 L321,53 C321,50.794 322.794,49 325,49 L365,49 C367.206,49 369,50.794 369,53 L369,77 C369,79.206 367.206,81 365,81 Z M325,51 C323.897,51 323,51.897 323,53 L323,77 C323,78.103 323.897,79 325,79 L365,79 C366.103,79 367,78.103 367,77 L367,53 C367,51.897 366.103,51 365,51 L325,51 Z" id="Shape"></path>
                <path d="M345,70.191 L327.457,58.84 C326.993,58.539 326.86,57.921 327.16,57.457 C327.46,56.993 328.079,56.861 328.543,57.16 L345,67.809 L361.457,57.16 C361.921,56.861 362.54,56.993 362.84,57.457 C363.14,57.921 363.007,58.539 362.543,58.84 L345,70.191 Z" id="Shape"></path>
                <path d="M327.001,75 C326.678,75 326.36,74.844 326.168,74.555 C325.861,74.095 325.985,73.475 326.445,73.168 L335.445,67.168 C335.905,66.861 336.526,66.985 336.832,67.445 C337.139,67.905 337.015,68.525 336.555,68.832 L327.555,74.832 C327.384,74.945 327.191,75 327.001,75 Z" id="Shape"></path>
                <path d="M362.999,75 C362.809,75 362.616,74.945 362.445,74.832 L353.445,68.832 C352.985,68.525 352.861,67.905 353.168,67.445 C353.474,66.985 354.094,66.861 354.555,67.168 L363.555,73.168 C364.015,73.475 364.139,74.095 363.832,74.555 C363.64,74.844 363.322,75 362.999,75 Z" id="Shape"></path>
            </g>
        </g>
    </g>
</svg>