<?xml version="1.0" encoding="UTF-8"?>
<svg width="20px" height="16px" viewBox="0 0 20 16" version="1.1" xmlns="http://www.w3.org/2000/svg" xmlns:xlink="http://www.w3.org/1999/xlink">
    <!-- Generator: Sketch 46.2 (44496) - http://www.bohemiancoding.com/sketch -->
    <title>if_038_003_twitter_social_network_android_material_1646909</title>
    <desc>Created with Sketch.</desc>
    <defs></defs>
    <g id="главная" stroke="none" stroke-width="1" fill="none" fill-rule="evenodd">
        <g id="Desktop" transform="translate(-789.000000, -1631.000000)" fill-rule="nonzero" fill="#000051">
            <g id="if_038_003_twitter_social_network_android_material_1646909" transform="translate(789.000000, 1631.000000)">
                <circle id="Oval" cx="14" cy="4" r="4"></circle>
                <path d="M10.58331,4.83331 C10.37488,4.83331 10,5.26563 10,5.5 C10,10.1944204 6.19442037,14 1.5,14 C1.06964169,13.9967257 0.640149647,13.9608564 0.21521,13.8927 C3.71623377,16.2451559 8.22905132,16.4756983 11.9515789,14.4922657 C15.6741064,12.5088332 17.999819,8.63459351 18,4.41663 C18,3.681 13.31757,4.83331 10.58331,4.83331 Z" id="Shape"></path>
                <path d="M10.58331,4.83331 C7.23370691,4.83503433 4.05330719,3.36161773 1.88879,0.80531 C1.53981705,1.4018406 1.35399618,2.07971312 1.35,2.77081 C1.35000552,4.96844195 3.13152805,6.74997791 5.32916,6.75 C7.45398,6.75 11.2276,6.77264 11.47607,4.78821 C11.18054,4.81116 10.8847,4.83331 10.58331,4.83331 Z" id="Shape"></path>
                <path d="M3.24585,6.04163 C2.58409081,6.03728971 1.93411775,5.86609555 1.35608,5.54389 C1.35577,5.56446 1.34998,5.5835 1.34998,5.60413 C1.34998552,7.80177367 3.13152633,9.58331448 5.32917,9.58332 C7.5268,9.58332 10.60417,7.98932 10.60417,5.79167 C10.60417,4.282 5.42285,6.04163 3.24585,6.04163 Z" id="Shape"></path>
                <path d="M5.72642,8.99649 C4.83045108,9.57701322 3.73606557,9.76591827 2.69733,9.51935 C3.19001247,11.2083513 4.73646238,12.3709408 6.49585,12.375 C8.95707268,12.1126226 10.9021049,10.1693185 11.16667,7.70833 C11.16667,5.81478 6.82831,8.28888 5.72642,8.99649 Z" id="Shape"></path>
                <path d="M15.61041,1.37915 C14.28827,1.37915 13.97479,3.03955 15.68541,3.03955 C17.389447,3.03576208 18.9006268,1.94395279 19.43941,0.32733 C18.2807739,1.01562143 16.9580682,1.37896651 15.61041,1.37915 L15.61041,1.37915 Z" id="Shape"></path>
                <path d="M16.82916,2.5354 C15.8202454,2.53670984 14.8213772,2.33504263 13.892,1.9424 C11.18369,0.79689 9.53674,5.2854 13.70416,5.2854 C16.2771158,5.28534804 18.6721302,3.97223659 20.05579,1.803 C19.0481506,2.28420564 17.9458046,2.5344228 16.82916,2.5354 L16.82916,2.5354 Z" id="Shape"></path>
            </g>
        </g>
    </g>
</svg>