<?xml version="1.0" encoding="UTF-8"?>
<svg width="20px" height="12px" viewBox="0 0 20 12" version="1.1" xmlns="http://www.w3.org/2000/svg" xmlns:xlink="http://www.w3.org/1999/xlink">
    <!-- Generator: Sketch 46.2 (44496) - http://www.bohemiancoding.com/sketch -->
    <title>if_038_018_vkontakte_vk_social_network_android_material_1646921</title>
    <desc>Created with Sketch.</desc>
    <defs></defs>
    <g id="главная" stroke="none" stroke-width="1" fill="none" fill-rule="evenodd">
        <g id="Desktop" transform="translate(-710.000000, -1544.000000)" fill-rule="nonzero" fill="#000051">
            <g id="if_038_018_vkontakte_vk_social_network_android_material_1646921" transform="translate(710.000000, 1544.000000)">
                <path d="M19.2152204,0.527195375 L15.9697374,0.527195375 C15.6998378,0.527193527 15.4517944,0.684106905 15.3241679,0.935585501 C15.3241679,0.935585501 14.0297444,3.45640056 13.6139591,4.30546111 C12.4954073,6.58952964 11.7710698,5.87247935 11.7710698,4.81242349 L11.7710698,1.15733395 C11.7710698,0.521306434 11.2834763,0.00570425585 10.6819993,0.00570425585 L8.24183099,0.00570425585 C7.56616347,-0.0474182093 6.91266794,0.273235806 6.51477576,0.853127325 C6.51477576,0.853127325 7.75385652,0.641276772 7.75385652,2.40673281 C7.75385652,2.84451417 7.77518087,4.1039048 7.79461147,5.16020592 C7.80211492,5.47903488 7.62076256,5.76897073 7.34036151,5.88643496 C7.05996046,6.0038992 6.74003696,5.92395537 6.53901963,5.68619229 C5.54022107,4.21724232 4.71288277,2.62608951 4.07498229,0.947308621 C3.96311216,0.690864394 3.7202654,0.526784445 3.45319309,0.527195375 C2.7493515,0.527195375 1.340899,0.527195375 0.504465734,0.527195375 C0.33981997,0.526010623 0.185131452,0.610437515 0.0906684354,0.753040321 C-0.00379458091,0.895643126 -0.0259748403,1.07822003 0.0313354511,1.24144004 C0.926711505,3.8385284 4.78370618,12 9.18607946,12 L11.0390391,12 C11.4433301,11.9999942 11.7710698,11.6534236 11.7710698,11.225909 L11.7710698,10.0427604 C11.771072,9.73941621 11.941519,9.46507287 12.2048069,9.34463803 C12.4680947,9.22420318 12.7738832,9.28070381 12.9829478,9.48841533 L15.2008082,11.6919239 C15.3999901,11.8898172 15.6630149,11.9999876 15.9363207,12 L18.8487513,12 C20.2534262,12 20.2534262,10.9692832 19.4875743,10.1717147 C18.948597,9.61041296 17.0036921,7.4426161 17.0036921,7.4426161 C16.6595579,7.06562182 16.6267409,6.47960966 16.9263938,6.06230212 C17.5550479,5.18749033 18.5833016,3.75548615 19.0193757,3.14202486 C19.6154415,2.30352972 20.6942346,0.527195375 19.2152204,0.527195375 Z" id="Shape"></path>
            </g>
        </g>
    </g>
</svg>